# xmcd
#
# Track frame offsets:
#	150
#	14719
#	29102
#	44049
#	64929
#	84702
#	101763
#	124224
#	144257
#	164177
#	177598
#
# Disc length: 2634 seconds
#
# Revision: 1
# Processed by: cddbd v1.5.2PL0 Copyright (c) Steve Scherf et al.
# Submitted via: audiograbber 1.83.01
#
DISCID=af0a480b
DTITLE=Michael Martin Murphey - Buckaroo Blue Grass
DYEAR=2009
DGENRE=Country
TTITLE0=Lone Cowboy
TTITLE1=What Am I Doing Hanging Around
TTITLE2=Lost River
TTITLE3=Carolina In The Pines
TTITLE4=Cherokee Fiddle
TTITLE5=Dancing In The Meadow
TTITLE6=Healing Spring
TTITLE7=Fiddlin' Man
TTITLE8=Boy From The Country
TTITLE9=Wild Bird
TTITLE10=Close To The Land
EXTD=
EXTT0=
EXTT1=
EXTT2=
EXTT3=
EXTT4=
EXTT5=
EXTT6=
EXTT7=
EXTT8=
EXTT9=
EXTT10=
PLAYORDER=
